<svg xmlns="http://www.w3.org/2000/svg" viewBox="0 0 320 180" width="320" height="180">
  <defs>
    <!-- Grid pattern -->
    <pattern id="grid" width="20" height="20" patternUnits="userSpaceOnUse">
      <rect width="20" height="20" fill="#0a0a0f"/>
      <rect width="19" height="19" fill="#12121a"/>
    </pattern>

    <!-- Neon glow filters -->
    <filter id="glow-cyan" x="-50%" y="-50%" width="200%" height="200%">
      <feGaussianBlur stdDeviation="2" result="blur"/>
      <feMerge>
        <feMergeNode in="blur"/>
        <feMergeNode in="SourceGraphic"/>
      </feMerge>
    </filter>

    <filter id="glow-green" x="-50%" y="-50%" width="200%" height="200%">
      <feGaussianBlur stdDeviation="3" result="blur"/>
      <feMerge>
        <feMergeNode in="blur"/>
        <feMergeNode in="SourceGraphic"/>
      </feMerge>
    </filter>

    <filter id="glow-pink" x="-50%" y="-50%" width="200%" height="200%">
      <feGaussianBlur stdDeviation="2" result="blur"/>
      <feMerge>
        <feMergeNode in="blur"/>
        <feMergeNode in="SourceGraphic"/>
      </feMerge>
    </filter>

    <filter id="glow-purple" x="-50%" y="-50%" width="200%" height="200%">
      <feGaussianBlur stdDeviation="2" result="blur"/>
      <feMerge>
        <feMergeNode in="blur"/>
        <feMergeNode in="SourceGraphic"/>
      </feMerge>
    </filter>
  </defs>

  <!-- Background -->
  <rect width="320" height="180" fill="url(#grid)"/>

  <!-- Border glow -->
  <rect x="10" y="10" width="300" height="160" fill="none" stroke="#00fff5" stroke-width="2" opacity="0.3"/>

  <!-- Food particles scattered around -->
  <g filter="url(#glow-green)" opacity="0.7">
    <circle cx="45" cy="55" r="3" fill="#10b981"/>
    <circle cx="280" cy="40" r="3" fill="#10b981"/>
    <circle cx="120" cy="145" r="3" fill="#10b981"/>
    <circle cx="200" cy="130" r="3" fill="#10b981"/>
    <circle cx="75" cy="100" r="3" fill="#10b981"/>
    <circle cx="255" cy="95" r="3" fill="#10b981"/>
    <circle cx="160" cy="55" r="3" fill="#10b981"/>
    <circle cx="90" cy="150" r="3" fill="#10b981"/>
  </g>

  <!-- Predator organism (red/spike based) -->
  <g filter="url(#glow-pink)" transform="translate(230, 70)">
    <!-- Core -->
    <circle cx="0" cy="0" r="10" fill="#ff6b6b"/>
    <!-- Eye -->
    <circle cx="8" cy="-3" r="4" fill="#fff"/>
    <circle cx="9" cy="-3" r="2" fill="#000"/>
    <!-- Spikes -->
    <polygon points="12,0 22,-4 22,4" fill="#ef4444"/>
    <polygon points="8,8 18,14 14,6" fill="#ef4444"/>
    <polygon points="8,-8 18,-14 14,-6" fill="#ef4444"/>
    <!-- Movers -->
    <circle cx="-12" cy="6" r="5" fill="#3b82f6"/>
    <circle cx="-12" cy="-6" r="5" fill="#3b82f6"/>
  </g>

  <!-- Prey organism (green/leaf based) -->
  <g filter="url(#glow-green)" transform="translate(80, 80)">
    <!-- Core -->
    <circle cx="0" cy="0" r="9" fill="#4ade80"/>
    <!-- Mouth -->
    <circle cx="10" cy="0" r="5" fill="#10b981"/>
    <!-- Leaves -->
    <ellipse cx="-6" cy="-12" rx="6" ry="4" fill="#115e59" transform="rotate(-30 -6 -12)"/>
    <ellipse cx="-6" cy="12" rx="6" ry="4" fill="#115e59" transform="rotate(30 -6 12)"/>
    <!-- Mover -->
    <circle cx="-12" cy="0" r="4" fill="#3b82f6"/>
  </g>

  <!-- Plant organism (photosynthetic) -->
  <g filter="url(#glow-purple)" transform="translate(170, 120)">
    <!-- Core -->
    <circle cx="0" cy="0" r="8" fill="#a78bfa"/>
    <!-- Multiple leaves -->
    <ellipse cx="10" cy="-5" rx="5" ry="3" fill="#115e59" transform="rotate(20 10 -5)"/>
    <ellipse cx="10" cy="5" rx="5" ry="3" fill="#115e59" transform="rotate(-20 10 5)"/>
    <ellipse cx="-10" cy="0" rx="5" ry="3" fill="#115e59"/>
    <ellipse cx="0" cy="-10" rx="5" ry="3" fill="#115e59" transform="rotate(90 0 -10)"/>
  </g>

  <!-- Small organisms in background -->
  <g opacity="0.5">
    <circle cx="50" cy="130" r="5" fill="#60a5fa" filter="url(#glow-cyan)"/>
    <circle cx="280" cy="130" r="4" fill="#f472b6" filter="url(#glow-pink)"/>
    <circle cx="140" cy="45" r="5" fill="#34d399" filter="url(#glow-green)"/>
    <circle cx="250" cy="150" r="4" fill="#c084fc" filter="url(#glow-purple)"/>
  </g>

  <!-- DNA helix decoration -->
  <g filter="url(#glow-cyan)" opacity="0.4">
    <path d="M285 25 Q295 35 285 45 Q275 55 285 65" stroke="#00fff5" stroke-width="2" fill="none"/>
    <path d="M295 25 Q285 35 295 45 Q305 55 295 65" stroke="#00fff5" stroke-width="2" fill="none"/>
    <line x1="285" y1="30" x2="295" y2="30" stroke="#00fff5" stroke-width="1"/>
    <line x1="285" y1="45" x2="295" y2="45" stroke="#00fff5" stroke-width="1"/>
    <line x1="285" y1="60" x2="295" y2="60" stroke="#00fff5" stroke-width="1"/>
  </g>

  <!-- Stats display -->
  <g filter="url(#glow-cyan)">
    <text x="20" y="30" font-family="monospace" font-size="11" fill="#00fff5" font-weight="bold">POP: 47</text>
    <text x="20" y="45" font-family="monospace" font-size="9" fill="#10b981">GEN: 12</text>
  </g>

  <!-- Scanlines overlay -->
  <g opacity="0.1">
    <line x1="0" y1="0" x2="320" y2="0" stroke="#fff" stroke-width="1"/>
    <line x1="0" y1="4" x2="320" y2="4" stroke="#fff" stroke-width="1"/>
    <line x1="0" y1="8" x2="320" y2="8" stroke="#fff" stroke-width="1"/>
    <line x1="0" y1="12" x2="320" y2="12" stroke="#fff" stroke-width="1"/>
    <line x1="0" y1="16" x2="320" y2="16" stroke="#fff" stroke-width="1"/>
    <line x1="0" y1="20" x2="320" y2="20" stroke="#fff" stroke-width="1"/>
    <line x1="0" y1="24" x2="320" y2="24" stroke="#fff" stroke-width="1"/>
    <line x1="0" y1="28" x2="320" y2="28" stroke="#fff" stroke-width="1"/>
    <line x1="0" y1="32" x2="320" y2="32" stroke="#fff" stroke-width="1"/>
    <line x1="0" y1="36" x2="320" y2="36" stroke="#fff" stroke-width="1"/>
    <line x1="0" y1="40" x2="320" y2="40" stroke="#fff" stroke-width="1"/>
    <line x1="0" y1="44" x2="320" y2="44" stroke="#fff" stroke-width="1"/>
    <line x1="0" y1="48" x2="320" y2="48" stroke="#fff" stroke-width="1"/>
    <line x1="0" y1="52" x2="320" y2="52" stroke="#fff" stroke-width="1"/>
    <line x1="0" y1="56" x2="320" y2="56" stroke="#fff" stroke-width="1"/>
    <line x1="0" y1="60" x2="320" y2="60" stroke="#fff" stroke-width="1"/>
    <line x1="0" y1="64" x2="320" y2="64" stroke="#fff" stroke-width="1"/>
    <line x1="0" y1="68" x2="320" y2="68" stroke="#fff" stroke-width="1"/>
    <line x1="0" y1="72" x2="320" y2="72" stroke="#fff" stroke-width="1"/>
    <line x1="0" y1="76" x2="320" y2="76" stroke="#fff" stroke-width="1"/>
    <line x1="0" y1="80" x2="320" y2="80" stroke="#fff" stroke-width="1"/>
    <line x1="0" y1="84" x2="320" y2="84" stroke="#fff" stroke-width="1"/>
    <line x1="0" y1="88" x2="320" y2="88" stroke="#fff" stroke-width="1"/>
    <line x1="0" y1="92" x2="320" y2="92" stroke="#fff" stroke-width="1"/>
    <line x1="0" y1="96" x2="320" y2="96" stroke="#fff" stroke-width="1"/>
    <line x1="0" y1="100" x2="320" y2="100" stroke="#fff" stroke-width="1"/>
    <line x1="0" y1="104" x2="320" y2="104" stroke="#fff" stroke-width="1"/>
    <line x1="0" y1="108" x2="320" y2="108" stroke="#fff" stroke-width="1"/>
    <line x1="0" y1="112" x2="320" y2="112" stroke="#fff" stroke-width="1"/>
    <line x1="0" y1="116" x2="320" y2="116" stroke="#fff" stroke-width="1"/>
    <line x1="0" y1="120" x2="320" y2="120" stroke="#fff" stroke-width="1"/>
    <line x1="0" y1="124" x2="320" y2="124" stroke="#fff" stroke-width="1"/>
    <line x1="0" y1="128" x2="320" y2="128" stroke="#fff" stroke-width="1"/>
    <line x1="0" y1="132" x2="320" y2="132" stroke="#fff" stroke-width="1"/>
    <line x1="0" y1="136" x2="320" y2="136" stroke="#fff" stroke-width="1"/>
    <line x1="0" y1="140" x2="320" y2="140" stroke="#fff" stroke-width="1"/>
    <line x1="0" y1="144" x2="320" y2="144" stroke="#fff" stroke-width="1"/>
    <line x1="0" y1="148" x2="320" y2="148" stroke="#fff" stroke-width="1"/>
    <line x1="0" y1="152" x2="320" y2="152" stroke="#fff" stroke-width="1"/>
    <line x1="0" y1="156" x2="320" y2="156" stroke="#fff" stroke-width="1"/>
    <line x1="0" y1="160" x2="320" y2="160" stroke="#fff" stroke-width="1"/>
    <line x1="0" y1="164" x2="320" y2="164" stroke="#fff" stroke-width="1"/>
    <line x1="0" y1="168" x2="320" y2="168" stroke="#fff" stroke-width="1"/>
    <line x1="0" y1="172" x2="320" y2="172" stroke="#fff" stroke-width="1"/>
    <line x1="0" y1="176" x2="320" y2="176" stroke="#fff" stroke-width="1"/>
  </g>
</svg>
